<?xml version="1.0"?>
<svg width="278" height="160" xmlns="http://www.w3.org/2000/svg" xmlns:svg="http://www.w3.org/2000/svg" xmlns:xlink="http://www.w3.org/1999/xlink">
 <!-- Created with SVG-edit - https://github.com/SVG-Edit/svgedit-->
 <defs>
  <symbol height="106" id="svg_10" width="106" xmlns="http://www.w3.org/2000/svg" xmlns:xlink="http://www.w3.org/1999/xlink">
   <g id="svg_1" transform="translate(53, 53)">
    <path d="m-9,-15l13,0c8,0 8,8 0,8l-13,0l0,-8zm-31,37l40,0l0,-11l-9,0l0,-8l10,0c11,0 5,19 14,19l25,0l0,-19l-6,0l0,2c0,8 -9,7 -10,2c-1,-5 -5,-9 -6,-9c15,-8 6,-24 -6,-24l-47,0l0,11l10,0l0,26l-15,0l0,11z" id="svg_9" stroke="black" stroke-linejoin="round" transform="translate(0.5, 0.5)"/>
    <g id="svg_4" mask="url(#svg_2)">
     <circle fill="none" id="svg_24" r="43" stroke="black" stroke-width="9"/>
     <g id="svg_7">
      <polygon id="svg_8" points="46,3 51,0 46,-3" stroke="black" stroke-linejoin="round" stroke-width="3"/>
      <use id="svg_25" transform="rotate(11.25)" xlink:href="#svg_8"/>
      <use id="svg_26" transform="rotate(22.50)" xlink:href="#svg_8"/>
      <use id="svg_27" transform="rotate(33.75)" xlink:href="#svg_8"/>
      <use id="svg_28" transform="rotate(45.00)" xlink:href="#svg_8"/>
      <use id="svg_29" transform="rotate(56.25)" xlink:href="#svg_8"/>
      <use id="svg_30" transform="rotate(67.50)" xlink:href="#svg_8"/>
      <use id="svg_31" transform="rotate(78.75)" xlink:href="#svg_8"/>
      <use id="svg_32" transform="rotate(90.00)" xlink:href="#svg_8"/>
      <use id="svg_33" transform="rotate(101.25)" xlink:href="#svg_8"/>
      <use id="svg_34" transform="rotate(112.50)" xlink:href="#svg_8"/>
      <use id="svg_35" transform="rotate(123.75)" xlink:href="#svg_8"/>
      <use id="svg_36" transform="rotate(135.00)" xlink:href="#svg_8"/>
      <use id="svg_37" transform="rotate(146.25)" xlink:href="#svg_8"/>
      <use id="svg_38" transform="rotate(157.50)" xlink:href="#svg_8"/>
      <use id="svg_39" transform="rotate(168.75)" xlink:href="#svg_8"/>
      <use id="svg_40" transform="rotate(180.00)" xlink:href="#svg_8"/>
      <use id="svg_41" transform="rotate(191.25)" xlink:href="#svg_8"/>
      <use id="svg_42" transform="rotate(202.50)" xlink:href="#svg_8"/>
      <use id="svg_43" transform="rotate(213.75)" xlink:href="#svg_8"/>
      <use id="svg_44" transform="rotate(225.00)" xlink:href="#svg_8"/>
      <use id="svg_45" transform="rotate(236.25)" xlink:href="#svg_8"/>
      <use id="svg_46" transform="rotate(247.50)" xlink:href="#svg_8"/>
      <use id="svg_47" transform="rotate(258.75)" xlink:href="#svg_8"/>
      <use id="svg_48" transform="rotate(270.00)" xlink:href="#svg_8"/>
      <use id="svg_49" transform="rotate(281.25)" xlink:href="#svg_8"/>
      <use id="svg_50" transform="rotate(292.50)" xlink:href="#svg_8"/>
      <use id="svg_51" transform="rotate(303.75)" xlink:href="#svg_8"/>
      <use id="svg_52" transform="rotate(315.00)" xlink:href="#svg_8"/>
      <use id="svg_53" transform="rotate(326.25)" xlink:href="#svg_8"/>
      <use id="svg_54" transform="rotate(337.50)" xlink:href="#svg_8"/>
      <use id="svg_55" transform="rotate(348.75)" xlink:href="#svg_8"/>
     </g>
     <g id="svg_5">
      <polygon id="svg_6" points="-7,-42 0,-35 7,-42" stroke="black" stroke-linejoin="round" stroke-width="6"/>
      <use id="svg_56" transform="rotate(72)" xlink:href="#svg_6"/>
      <use id="svg_57" transform="rotate(144)" xlink:href="#svg_6"/>
      <use id="svg_58" transform="rotate(216)" xlink:href="#svg_6"/>
      <use id="svg_59" transform="rotate(288)" xlink:href="#svg_6"/>
     </g>
    </g>
    <mask id="svg_2">
     <rect fill="white" height="120" id="svg_60" width="120" x="-60" y="-60"/>
     <circle cy="-40" id="svg_3" r="3"/>
     <use id="svg_61" transform="rotate(72)" xlink:href="#svg_3"/>
     <use id="svg_62" transform="rotate(144)" xlink:href="#svg_3"/>
     <use id="svg_63" transform="rotate(216)" xlink:href="#svg_3"/>
     <use id="svg_64" transform="rotate(288)" xlink:href="#svg_3"/>
    </mask>
   </g>
  </symbol>
  <symbol height="75" id="svg_111" width="154" xmlns="http://www.w3.org/2000/svg" xmlns:lucid="lucid" xmlns:xlink="http://www.w3.org/1999/xlink">
   <g transform="translate(-502 -491)">
    <path d="m460,426a6,6 0 0 1 6,-6l228,0a6,6 0 0 1 6,6l0,51.33a6,6 0 0 1 -6,6l-228,0a6,6 0 0 1 -6,-6l0,-51.33z" fill="#fff" fill-opacity="0" stroke="#000" stroke-opacity="0" stroke-width="2"/>
    <use transform="matrix(1,0,0,1,465,425) translate(64.38151041666667 38.921875)" xlink:href="#svg_106"/>
    <path d="m460,500.76a6,6 0 0 1 6,-6l228,0a6,6 0 0 1 6,6l0,51.33a6,6 0 0 1 -6,6l-228,0a6,6 0 0 1 -6,-6l0,-51.33z" fill="#fff" fill-opacity="0" stroke="#000" stroke-opacity="0" stroke-width="2"/>
    <use transform="matrix(1,0,0,1,465,499.7555555555556) translate(58.511111111111106 42.041666666666664)" xlink:href="#svg_101"/>
    <defs>
     <path d="m120,-121c-43,-151 -18,-269 76,-352c171,101 296,163 373,186c144,-1 227,-37 237,-108c8,-56 -37,-118 -132,-164l-257,-125c-161,-85 -250,-206 -250,-361c0,-172 146,-339 281,-381c70,-21 152,-31 248,-25c176,11 330,61 463,150c5,126 -34,236 -118,329c-162,-121 -292,-178 -389,-170c-91,-11 -140,22 -145,98c-3,43 58,106 193,168c148,68 263,132 336,211s106,176 98,289c-11,153 -84,268 -214,353c-86,56 -206,88 -364,73c-152,-14 -297,-76 -436,-171" fill="#000" id="svg_110"/>
     <path d="m1329,-1453l-570,1469c-119,54 -233,55 -341,3l-363,-1472c124,-21 249,-21 375,0l191,1052l326,-1052c123,-20 251,-20 382,0" fill="#000" id="svg_109"/>
     <path d="m55,18c94,49 209,54 345,15l118,-1471c-117,-34 -227,-39 -328,-15" fill="#000" id="svg_108"/>
     <path d="m156,-1444l-101,1484l323,3l53,-719l164,674c39,44 84,53 135,28l306,-696l-41,710l325,-3l91,-1483c-89,-23 -182,-23 -278,2l-411,842l-233,-840c-139,-38 -250,-39 -333,-2" fill="#000" id="svg_107"/>
     <g id="svg_106">
      <use transform="matrix(0.021701388888888888,0,0,0.021701388888888888,0,0)" xlink:href="#svg_110"/>
      <use transform="matrix(0.021701388888888888,0,0,0.021701388888888888,26.627604166666664,0)" xlink:href="#svg_109"/>
      <use transform="matrix(0.021701388888888888,0,0,0.021701388888888888,56.77083333333333,0)" xlink:href="#svg_108"/>
      <use transform="matrix(0.021701388888888888,0,0,0.021701388888888888,69.3142361111111,0)" xlink:href="#svg_107"/>
     </g>
     <path d="m31,8c-2,-22 -2,-202 -2,-254c68,-15 137,-18 157,-15c18,68 59,104 91,104c29,0 55,-16 55,-46c0,-57 -64,-76 -124,-108c-89,-48 -175,-98 -175,-241c0,-99 82,-180 216,-180c58,0 94,22 111,40l7,-48s104,-4 153,17c5,2 -12,195 -12,227c0,15 -156,14 -156,10c-5,-58 -39,-80 -70,-80c-18,0 -55,9 -55,49c0,36 75,58 149,102c89,52 164,105 164,228c0,113 -98,198 -198,198c-103,0 -140,-39 -155,-56c-2,22 -4,62 -5,62c-5,-2 -151,-9 -151,-9" id="svg_105"/>
     <path d="m288,0c-5,-3 -195,-536 -195,-536s-53,-8 -61,-8s-2,-157 0,-157c0,0 306,2 310,3s14,157 14,157s-48,7 -54,7s76,228 76,228s83,-233 80,-233s-48,2 -51,2s-15,-159 -13,-162s310,-2 311,1s0,161 -1,164s-63,3 -67,3s-174,526 -181,531s-163,3 -168,0" id="svg_104"/>
     <path d="m51,-7c-11,-16 -6,-124 -2,-128s72,-3 72,-3l-14,-414s-58,2 -63,-3s4,-146 4,-146l329,-5l7,142l-90,17l13,404c5,0 87,0 87,7s7,132 2,134s-334,11 -345,-5" id="svg_103"/>
     <path d="m38,-3s-13,-140 -5,-144s70,-1 70,-4s-2,-378 -3,-385s-51,1 -61,-5s-13,-158 -8,-164s232,-4 237,-1s108,171 113,180c5,-9 120,-174 126,-179s247,-2 247,0s2,145 2,153s-72,10 -73,10s-1,388 3,395s77,2 77,9s11,147 8,146s-336,3 -336,-10s-3,-136 2,-137s67,0 67,-3l2,-279s-70,105 -72,105s-89,10 -92,7s-72,-112 -73,-112s7,263 7,269s71,8 71,11s9,143 6,143s-315,-5 -315,-5" id="svg_102"/>
     <g id="svg_101">
      <use transform="matrix(0.044444444444444446,0,0,0.044444444444444446,0,0)" xlink:href="#svg_105"/>
      <use transform="matrix(0.044444444444444446,0,0,0.044444444444444446,25.2,0)" xlink:href="#svg_104"/>
      <use transform="matrix(0.044444444444444446,0,0,0.044444444444444446,57.955555555555556,0)" xlink:href="#svg_103"/>
      <use transform="matrix(0.044444444444444446,0,0,0.044444444444444446,77.46666666666667,0)" xlink:href="#svg_102"/>
     </g>
    </defs>
   </g>
  </symbol>
 </defs>
 <g class="layer">
  <title>Layer 1</title>
  <use id="svg_11" transform="matrix(1.50943 0 0 1.50943 0 0)" x="0" xlink:href="#svg_10" y="0"/>
  <use id="svg_112" transform="matrix(1.03896 0 0 1.03896 0 0)" x="131.86" xlink:href="#svg_111" y="56.79"/>
 </g>
</svg>
